<svg xmlns="http://www.w3.org/2000/svg" version="1.1" xmlns:xlink="http://www.w3.org/1999/xlink" xmlns:svgjs="http://svgjs.dev/svgjs" width="1500" height="1500" viewBox="0 0 1500 1500"><rect width="1500" height="1500" fill="#000000"></rect><g transform="matrix(0.6666666666666666,0,0,0.6666666666666666,249.39393939393938,622.5105097609074)"><svg viewBox="0 0 396 101" data-background-color="#ffffff" preserveAspectRatio="xMidYMid meet" height="382" width="1500" xmlns="http://www.w3.org/2000/svg" xmlns:xlink="http://www.w3.org/1999/xlink"><g id="tight-bounds" transform="matrix(1,0,0,1,0.2400000000000091,0.06193133827883912)"><svg viewBox="0 0 395.52 100.87613732344231" height="100.87613732344231" width="395.52"><g><svg viewBox="0 0 568.6877268296594 145.04202373034227" height="100.87613732344231" width="395.52"><g transform="matrix(1,0,0,1,173.16772682965933,42.73642649931748)"><svg viewBox="0 0 395.52 59.5691707317073" height="59.5691707317073" width="395.52"><g id="textblocktransform"><svg viewBox="0 0 395.52 59.5691707317073" height="59.5691707317073" width="395.52" id="textblock"><g><svg viewBox="0 0 395.52 59.5691707317073" height="59.5691707317073" width="395.52"><g transform="matrix(1,0,0,1,0,0)"><svg width="395.52" viewBox="1.05 -37.5 328.46999999999997 49.4" height="59.5691707317073" data-palette-color="url(#46718abf-c53a-4d9c-bad7-843baf06418b)"><g class="wordmark-text-0" data-fill-palette-color="primary" id="text-0"></g></svg></g></svg></g></svg></g></svg></g><g><svg viewBox="0 0 145.04202373034227 145.04202373034227" height="145.04202373034227" width="145.04202373034227"><g><svg></svg></g><g id="icon-0"><svg viewBox="0 0 145.04202373034227 145.04202373034227" height="145.04202373034227" width="145.04202373034227"><g></g><g transform="matrix(1,0,0,1,30.553235778490446,53.396471005797)"><svg viewBox="0 0 83.93555217336137 38.24908171874827" height="38.24908171874827" width="83.93555217336137"><g><svg xmlns="http://www.w3.org/2000/svg" xmlns:xlink="http://www.w3.org/1999/xlink" version="1.1" x="0" y="0" viewBox="5 29.49387475885969 90 41.012625348283166" enable-background="new 0 0 100 100" xml:space="preserve" height="38.24908171874827" width="83.93555217336137" class="icon-cg-0" data-fill-palette-color="accent" id="cg-0"></svg></g></svg></g></svg></g></svg></g></svg></g><defs></defs><mask id="c84d2e46-36dc-43b6-8a23-d184be89a0e2"><g id="SvgjsG1068"><svg viewBox="0 0 395.52 100.87613732344231" height="100.87613732344231" width="395.52"><g><svg viewBox="0 0 568.6877268296594 145.04202373034227" height="100.87613732344231" width="395.52"><g transform="matrix(1,0,0,1,173.16772682965933,42.73642649931748)"><svg viewBox="0 0 395.52 59.5691707317073" height="59.5691707317073" width="395.52"><g id="SvgjsG1067"><svg viewBox="0 0 395.52 59.5691707317073" height="59.5691707317073" width="395.52" id="SvgjsSvg1066"><g><svg viewBox="0 0 395.52 59.5691707317073" height="59.5691707317073" width="395.52"><g transform="matrix(1,0,0,1,0,0)"><svg width="395.52" viewBox="1.05 -37.5 328.46999999999997 49.4" height="59.5691707317073" data-palette-color="url(#46718abf-c53a-4d9c-bad7-843baf06418b)"><g class="wordmark-text-0" data-fill-palette-color="primary" id="SvgjsG1065"><path d="M1.05-33.9L1.05-35 27.05-35 27.55-25.1 26.65-25.1Q24.55-30.15 22.25-32.02 19.95-33.9 15.5-33.9L15.5-33.9 13.75-33.9 13.75-18.45 15.45-18.45Q17.8-18.45 19.4-20.23 21-22 21.65-25L21.65-25 22.4-25 22.4-10.2 21.55-10.2Q20.65-13.95 19.13-15.55 17.6-17.15 14.95-17.15L14.95-17.15 13.75-17.15 13.75-1.1 15.65-1.1Q20.25-1.1 23.48-3.85 26.7-6.6 27.9-10.9L27.9-10.9 28.9-10.9 28.5 0 1.05 0 1.05-1.1 4-1.1 4-33.9 1.05-33.9ZM45.7-23.4L45.7-23.4Q43.5-23.4 42.55-21 41.6-18.6 41.6-13.05L41.6-13.05 41.6-10.45Q41.6-5.5 42.7-3.35 43.8-1.2 46.75-1.2 49.7-1.2 51.45-3.2 53.2-5.2 53.7-7.75L53.7-7.75 54.6-7.65Q53.65-3.35 51.1-1.45L51.1-1.45Q48.5 0.5 43.95 0.5L43.95 0.5Q38.15 0.5 35.05-2.63 31.95-5.75 31.95-11.78 31.95-17.8 35.47-21.05 39-24.3 45.3-24.3L45.3-24.3Q49.75-24.3 52.1-22.58 54.45-20.85 54.45-18.25 54.45-15.65 53.32-14.45 52.2-13.25 50.22-13.25 48.25-13.25 47.05-14.3 45.85-15.35 45.85-17.4L45.85-17.4Q45.85-18.3 46.1-19.2L46.1-19.2 47.75-19.2Q48.1-20.2 48.1-21L48.1-21Q48.1-23.4 45.7-23.4ZM55.85-36.6L55.85-37.5 67.9-37.5 67.9-19.2Q68.7-21.5 70.34-22.9 72-24.3 75.34-24.3L75.34-24.3Q83.09-24.3 83.09-15.95L83.09-15.95 83.09-0.9 85.9-0.9 85.9 0 71.75 0 71.75-0.9 73.8-0.9 73.8-17.15Q73.8-20.15 73.4-21.03 73-21.9 71.95-21.9L71.95-21.9Q70.34-21.9 69.12-19.8 67.9-17.7 67.9-14.7L67.9-14.7 67.9-0.9 70.05-0.9 70.05 0 55.85 0 55.85-0.9 58.6-0.9 58.6-36.6 55.85-36.6ZM99.79 0.5Q93.34 0.5 90.12-2.83 86.89-6.15 86.89-12.08 86.89-18 90.52-21.15 94.14-24.3 99.74-24.3L99.74-24.3Q111.09-24.3 110.64-12.9L110.64-12.9 96.54-12.9 96.54-10.95Q96.54-6.05 97.79-3.55 99.04-1.05 102.14-1.05L102.14-1.05Q107.94-1.05 109.74-7.25L109.74-7.25 110.64-7.1Q109.69-3.5 107.22-1.5 104.74 0.5 99.79 0.5L99.79 0.5ZM96.59-16.35L96.59-13.9 101.74-13.9 101.74-16.35Q101.74-20.4 101.27-21.88 100.79-23.35 99.37-23.35 97.94-23.35 97.27-21.78 96.59-20.2 96.59-16.35L96.59-16.35ZM112.24-36.6L112.24-37.5 124.49-37.5 124.49-0.9 127.29-0.9 127.29 0 112.44 0 112.44-0.9 115.19-0.9 115.19-36.6 112.24-36.6ZM144.39-9.85L144.39-9.85 144.39-14.1Q144.39-18.95 143.86-21.18 143.34-23.4 141.44-23.4L141.44-23.4Q140.34-23.4 139.66-22.78 138.99-22.15 138.69-20.7L138.69-20.7Q138.24-18.45 138.24-13.85L138.24-13.85 138.24-9.95Q138.24-4.5 138.56-3.4 138.89-2.3 139.24-1.6L139.24-1.6Q139.79-0.4 141.39-0.4L141.39-0.4Q143.34-0.4 143.94-2.65L143.94-2.65Q144.39-4.25 144.39-9.85ZM141.29 0.5Q135.04 0.5 131.84-2.7 128.64-5.9 128.64-11.88 128.64-17.85 132.06-21.08 135.49-24.3 141.69-24.3 147.89-24.3 150.94-21.33 153.99-18.35 153.99-12.25L153.99-12.25Q153.99 0.5 141.29 0.5L141.29 0.5ZM155.49-22.9L155.49-23.8 167.54-23.8 167.54-19.2Q168.34-21.5 169.99-22.9 171.64-24.3 174.99-24.3L174.99-24.3Q182.74-24.3 182.74-15.95L182.74-15.95 182.74-0.9 185.54-0.9 185.54 0 171.39 0 171.39-0.9 173.44-0.9 173.44-17.15Q173.44-20.15 173.04-21.03 172.64-21.9 171.59-21.9L171.59-21.9Q169.99-21.9 168.76-19.8 167.54-17.7 167.54-14.7L167.54-14.7 167.54-0.9 169.69-0.9 169.69 0 155.49 0 155.49-0.9 158.24-0.9 158.24-22.9 155.49-22.9ZM201.93-0.55L201.93-0.55Q204.43-0.55 206.36-1.9 208.28-3.25 208.28-5.98 208.28-8.7 206.21-10.15 204.13-11.6 200.31-12.68 196.48-13.75 194.76-14.55 193.03-15.35 191.48-16.65L191.48-16.65Q188.38-19.25 188.38-24.7L188.38-24.7Q188.38-29.15 191.56-32.35 194.73-35.55 200.23-35.55L200.23-35.55Q202.88-35.55 205.76-34.77 208.63-34 209.33-34 210.03-34 210.58-35L210.58-35 211.13-35 211.48-24.9 210.68-24.9Q208.28-29.25 205.66-31.88 203.03-34.5 199.96-34.5 196.88-34.5 195.18-33.08 193.48-31.65 193.48-29.28 193.48-26.9 195.51-25.63 197.53-24.35 200.48-23.55 203.43-22.75 204.36-22.45 205.28-22.15 206.66-21.63 208.03-21.1 208.91-20.53 209.78-19.95 210.76-19.07 211.73-18.2 212.28-17.15L212.28-17.15Q213.63-14.75 213.63-11.45L213.63-11.45Q213.63-6.05 210.26-2.78 206.88 0.5 201.38 0.5L201.38 0.5Q198.53 0.5 194.86-0.25 191.18-1 190.78-1L190.78-1Q190.08-1 189.43 0.5L189.43 0.5 188.73 0.5 188.23-11.4 189.08-11.4Q191.28-7.05 194.71-3.8 198.13-0.55 201.93-0.55ZM230.18-23.4L230.18-23.4Q227.98-23.4 227.03-21 226.08-18.6 226.08-13.05L226.08-13.05 226.08-10.45Q226.08-5.5 227.18-3.35 228.28-1.2 231.23-1.2 234.18-1.2 235.93-3.2 237.68-5.2 238.18-7.75L238.18-7.75 239.08-7.65Q238.13-3.35 235.58-1.45L235.58-1.45Q232.98 0.5 228.43 0.5L228.43 0.5Q222.63 0.5 219.53-2.63 216.43-5.75 216.43-11.78 216.43-17.8 219.96-21.05 223.48-24.3 229.78-24.3L229.78-24.3Q234.23-24.3 236.58-22.58 238.93-20.85 238.93-18.25 238.93-15.65 237.81-14.45 236.68-13.25 234.71-13.25 232.73-13.25 231.53-14.3 230.33-15.35 230.33-17.4L230.33-17.4Q230.33-18.3 230.58-19.2L230.58-19.2 232.23-19.2Q232.58-20.2 232.58-21L232.58-21Q232.58-23.4 230.18-23.4ZM257.03-22.4L257.03-22.4Q255.18-22.4 253.78-20 252.38-17.6 252.38-14.3L252.38-14.3 252.38-0.9 255.93-0.9 255.93 0 240.33 0 240.33-0.9 243.08-0.9 243.08-22.9 240.33-22.9 240.33-23.8 252.38-23.8 252.38-19Q253.03-21.55 254.88-22.93 256.73-24.3 259.08-24.3 261.43-24.3 262.9-22.98 264.38-21.65 264.38-19.23 264.38-16.8 263.28-15.5 262.18-14.2 259.9-14.2 257.63-14.2 256.55-15.7 255.48-17.2 256.28-19.85L256.28-19.85 258.08-19.85Q259.33-22.4 257.03-22.4ZM272.43-27.25Q269.78-27.25 268.65-28.6 267.53-29.95 267.53-31.95 267.53-33.95 268.75-35.25 269.98-36.55 272.48-36.55 274.98-36.55 276.28-35.38 277.58-34.2 277.58-32.02 277.58-29.85 276.33-28.55 275.08-27.25 272.43-27.25ZM264.88-22.9L264.88-23.8 277.13-23.8 277.13-0.9 279.93-0.9 279.93 0 265.08 0 265.08-0.9 267.83-0.9 267.83-22.9 264.88-22.9ZM299.17-13.45Q299.17-18.6 298.67-20.38 298.17-22.15 296.72-22.15 295.27-22.15 294.12-20.28 292.97-18.4 292.97-15.25L292.97-15.25 292.97-6.1Q292.97-3.95 293.82-2.45 294.67-0.95 296.32-0.95 297.97-0.95 298.57-3.15 299.17-5.35 299.17-10.85L299.17-10.85 299.17-13.45ZM281.02-23.8L292.87-23.8 292.87-19.85Q294.82-24.3 299.77-24.3L299.77-24.3Q304.07-24.3 306.45-21.2 308.82-18.1 308.82-11.8 308.82-5.5 306.25-2.5 303.67 0.5 298.52 0.5L298.52 0.5Q296.12 0.5 294.92-0.1 293.72-0.7 292.97-1.95L292.97-1.95 292.97 11 299.42 11 299.42 11.9 280.92 11.9 280.92 11 283.67 11 283.67-22.9 281.02-22.9 281.02-23.8ZM312.82-7.15L312.82-7.15 312.82-22.9 310.07-22.9 310.07-23.8 312.82-23.8 312.82-30.25 322.12-32.55 322.12-23.8 328.62-23.8 328.62-22.9 322.12-22.9 322.12-6.05Q322.12-3.7 322.6-2.6 323.07-1.5 324.57-1.5 326.07-1.5 327.2-3 328.32-4.5 328.67-7.1L328.67-7.1 329.52-7Q329.12-3.55 327.32-1.53 325.52 0.5 321.37 0.5 317.22 0.5 315.02-1.15 312.82-2.8 312.82-7.15Z" fill="white"></path></g></svg></g></svg></g></svg></g></svg></g><g><svg viewBox="0 0 145.04202373034227 145.04202373034227" height="145.04202373034227" width="145.04202373034227"><g><svg></svg></g><g id="SvgjsG1064"><svg viewBox="0 0 145.04202373034227 145.04202373034227" height="145.04202373034227" width="145.04202373034227"><g><path d="M0 72.521c0-40.052 32.469-72.521 72.521-72.521 40.052 0 72.521 32.469 72.521 72.521 0 40.052-32.469 72.521-72.521 72.521-40.052 0-72.521-32.469-72.521-72.521zM72.521 139.67c37.085 0 67.149-30.064 67.149-67.149 0-37.085-30.064-67.149-67.149-67.149-37.085 0-67.149 30.064-67.149 67.149 0 37.085 30.064 67.149 67.149 67.149z" fill="black" stroke="transparent"></path></g><g transform="matrix(1,0,0,1,30.553235778490446,53.396471005797)"><svg viewBox="0 0 83.93555217336137 38.24908171874827" height="38.24908171874827" width="83.93555217336137"><g><svg xmlns="http://www.w3.org/2000/svg" xmlns:xlink="http://www.w3.org/1999/xlink" version="1.1" x="0" y="0" viewBox="5 29.49387475885969 90 41.012625348283166" enable-background="new 0 0 100 100" xml:space="preserve" height="38.24908171874827" width="83.93555217336137" class="icon-cg-0" data-fill-palette-color="accent" id="SvgjsSvg1063"><g fill="black"><path d="M23.943 30.807L5 50.001l18.942 19.192c1.728 1.751 4.53 1.751 6.258 0.002 1.729-1.75 1.73-4.587 0.002-6.338L18.193 50.695l-3.624 2.289 15.634-15.841c0.864-0.875 1.295-2.021 1.295-3.168 0-1.147-0.433-2.295-1.297-3.17C28.473 29.056 25.671 29.057 23.943 30.807z" fill="black"></path><path d="M76.057 30.808L95 50.001 76.058 69.193c-1.728 1.751-4.53 1.751-6.258 0.002-1.729-1.75-1.73-4.587-0.002-6.338l12.009-12.161 3.624 2.289L69.796 37.144c-0.864-0.875-1.295-2.021-1.295-3.168 0-1.147 0.433-2.295 1.297-3.17C71.527 29.056 74.329 29.057 76.057 30.808z" fill="black"></path><path d="M60.899 32.352c-0.419-1.068-1.241-1.978-2.366-2.476-2.249-0.997-4.857 0.028-5.825 2.288l-13.82 32.062c-0.484 1.13-0.467 2.355-0.048 3.422 0.419 1.068 1.241 1.978 2.366 2.476 2.249 0.997 4.857-0.028 5.825-2.288l13.82-32.062C61.335 34.644 61.318 33.419 60.899 32.352z" fill="black"></path></g></svg></g></svg></g></svg></g></svg></g></svg></g><defs><mask></mask></defs></svg><rect width="395.52" height="100.87613732344231" fill="black" stroke="none" visibility="hidden"></rect></g></mask><linearGradient x1="0" x2="1" y1="0.548" y2="0.55" id="46718abf-c53a-4d9c-bad7-843baf06418b"><stop stop-color="#ff6cab" offset="0"></stop><stop stop-color="#7366ff" offset="1"></stop></linearGradient><rect width="395.52" height="100.87613732344231" fill="#ffffff" mask="url(#c84d2e46-36dc-43b6-8a23-d184be89a0e2)" data-fill-palette-color="primary"></rect><mask id="4e590822-78c2-40d6-9a1a-d57cf6a58f6c"><g id="SvgjsG1080"><svg viewBox="0 0 395.52 100.87613732344231" height="100.87613732344231" width="395.52"><g><svg viewBox="0 0 568.6877268296594 145.04202373034227" height="100.87613732344231" width="395.52"><g transform="matrix(1,0,0,1,173.16772682965933,42.73642649931748)"><svg viewBox="0 0 395.52 59.5691707317073" height="59.5691707317073" width="395.52"><g id="SvgjsG1079"><svg viewBox="0 0 395.52 59.5691707317073" height="59.5691707317073" width="395.52" id="SvgjsSvg1078"><g><svg viewBox="0 0 395.52 59.5691707317073" height="59.5691707317073" width="395.52"><g transform="matrix(1,0,0,1,0,0)"><svg width="395.52" viewBox="1.05 -37.5 328.46999999999997 49.4" height="59.5691707317073" data-palette-color="url(#46718abf-c53a-4d9c-bad7-843baf06418b)"><g class="wordmark-text-0" data-fill-palette-color="primary" id="SvgjsG1077"></g></svg></g></svg></g></svg></g></svg></g><g><svg viewBox="0 0 145.04202373034227 145.04202373034227" height="145.04202373034227" width="145.04202373034227"><g><svg></svg></g><g id="SvgjsG1076"><svg viewBox="0 0 145.04202373034227 145.04202373034227" height="145.04202373034227" width="145.04202373034227"><g><path d="M0 72.521c0-40.052 32.469-72.521 72.521-72.521 40.052 0 72.521 32.469 72.521 72.521 0 40.052-32.469 72.521-72.521 72.521-40.052 0-72.521-32.469-72.521-72.521zM72.521 139.67c37.085 0 67.149-30.064 67.149-67.149 0-37.085-30.064-67.149-67.149-67.149-37.085 0-67.149 30.064-67.149 67.149 0 37.085 30.064 67.149 67.149 67.149z" fill="white" stroke="transparent"></path></g><g transform="matrix(1,0,0,1,30.553235778490446,53.396471005797)"><svg viewBox="0 0 83.93555217336137 38.24908171874827" height="38.24908171874827" width="83.93555217336137"><g><svg xmlns="http://www.w3.org/2000/svg" xmlns:xlink="http://www.w3.org/1999/xlink" version="1.1" x="0" y="0" viewBox="5 29.49387475885969 90 41.012625348283166" enable-background="new 0 0 100 100" xml:space="preserve" height="38.24908171874827" width="83.93555217336137" class="icon-cg-0" data-fill-palette-color="accent" id="SvgjsSvg1075"><g fill="white"><path d="M23.943 30.807L5 50.001l18.942 19.192c1.728 1.751 4.53 1.751 6.258 0.002 1.729-1.75 1.73-4.587 0.002-6.338L18.193 50.695l-3.624 2.289 15.634-15.841c0.864-0.875 1.295-2.021 1.295-3.168 0-1.147-0.433-2.295-1.297-3.17C28.473 29.056 25.671 29.057 23.943 30.807z" fill="white"></path><path d="M76.057 30.808L95 50.001 76.058 69.193c-1.728 1.751-4.53 1.751-6.258 0.002-1.729-1.75-1.73-4.587-0.002-6.338l12.009-12.161 3.624 2.289L69.796 37.144c-0.864-0.875-1.295-2.021-1.295-3.168 0-1.147 0.433-2.295 1.297-3.17C71.527 29.056 74.329 29.057 76.057 30.808z" fill="white"></path><path d="M60.899 32.352c-0.419-1.068-1.241-1.978-2.366-2.476-2.249-0.997-4.857 0.028-5.825 2.288l-13.82 32.062c-0.484 1.13-0.467 2.355-0.048 3.422 0.419 1.068 1.241 1.978 2.366 2.476 2.249 0.997 4.857-0.028 5.825-2.288l13.82-32.062C61.335 34.644 61.318 33.419 60.899 32.352z" fill="white"></path></g></svg></g></svg></g></svg></g></svg></g></svg></g><defs><mask></mask></defs><mask><g id="SvgjsG1074"><svg viewBox="0 0 395.52 100.87613732344231" height="100.87613732344231" width="395.52"><g><svg viewBox="0 0 568.6877268296594 145.04202373034227" height="100.87613732344231" width="395.52"><g transform="matrix(1,0,0,1,173.16772682965933,42.73642649931748)"><svg viewBox="0 0 395.52 59.5691707317073" height="59.5691707317073" width="395.52"><g id="SvgjsG1073"><svg viewBox="0 0 395.52 59.5691707317073" height="59.5691707317073" width="395.52" id="SvgjsSvg1072"><g><svg viewBox="0 0 395.52 59.5691707317073" height="59.5691707317073" width="395.52"><g transform="matrix(1,0,0,1,0,0)"><svg width="395.52" viewBox="1.05 -37.5 328.46999999999997 49.4" height="59.5691707317073" data-palette-color="url(#46718abf-c53a-4d9c-bad7-843baf06418b)"><g class="wordmark-text-0" data-fill-palette-color="primary" id="SvgjsG1071"><path d="M1.05-33.9L1.05-35 27.05-35 27.55-25.1 26.65-25.1Q24.55-30.15 22.25-32.02 19.95-33.9 15.5-33.9L15.5-33.9 13.75-33.9 13.75-18.45 15.45-18.45Q17.8-18.45 19.4-20.23 21-22 21.65-25L21.65-25 22.4-25 22.4-10.2 21.55-10.2Q20.65-13.95 19.13-15.55 17.6-17.15 14.95-17.15L14.95-17.15 13.75-17.15 13.75-1.1 15.65-1.1Q20.25-1.1 23.48-3.85 26.7-6.6 27.9-10.9L27.9-10.9 28.9-10.9 28.5 0 1.05 0 1.05-1.1 4-1.1 4-33.9 1.05-33.9ZM45.7-23.4L45.7-23.4Q43.5-23.4 42.55-21 41.6-18.6 41.6-13.05L41.6-13.05 41.6-10.45Q41.6-5.5 42.7-3.35 43.8-1.2 46.75-1.2 49.7-1.2 51.45-3.2 53.2-5.2 53.7-7.75L53.7-7.75 54.6-7.65Q53.65-3.35 51.1-1.45L51.1-1.45Q48.5 0.5 43.95 0.5L43.95 0.5Q38.15 0.5 35.05-2.63 31.95-5.75 31.95-11.78 31.95-17.8 35.47-21.05 39-24.3 45.3-24.3L45.3-24.3Q49.75-24.3 52.1-22.58 54.45-20.85 54.45-18.25 54.45-15.65 53.32-14.45 52.2-13.25 50.22-13.25 48.25-13.25 47.05-14.3 45.85-15.35 45.85-17.4L45.85-17.4Q45.85-18.3 46.1-19.2L46.1-19.2 47.75-19.2Q48.1-20.2 48.1-21L48.1-21Q48.1-23.4 45.7-23.4ZM55.85-36.6L55.85-37.5 67.9-37.5 67.9-19.2Q68.7-21.5 70.34-22.9 72-24.3 75.34-24.3L75.34-24.3Q83.09-24.3 83.09-15.95L83.09-15.95 83.09-0.9 85.9-0.9 85.9 0 71.75 0 71.75-0.9 73.8-0.9 73.8-17.15Q73.8-20.15 73.4-21.03 73-21.9 71.95-21.9L71.95-21.9Q70.34-21.9 69.12-19.8 67.9-17.7 67.9-14.7L67.9-14.7 67.9-0.9 70.05-0.9 70.05 0 55.85 0 55.85-0.9 58.6-0.9 58.6-36.6 55.85-36.6ZM99.79 0.5Q93.34 0.5 90.12-2.83 86.89-6.15 86.89-12.08 86.89-18 90.52-21.15 94.14-24.3 99.74-24.3L99.74-24.3Q111.09-24.3 110.64-12.9L110.64-12.9 96.54-12.9 96.54-10.95Q96.54-6.05 97.79-3.55 99.04-1.05 102.14-1.05L102.14-1.05Q107.94-1.05 109.74-7.25L109.74-7.25 110.64-7.1Q109.69-3.5 107.22-1.5 104.74 0.5 99.79 0.5L99.79 0.5ZM96.59-16.35L96.59-13.9 101.74-13.9 101.74-16.35Q101.74-20.4 101.27-21.88 100.79-23.35 99.37-23.35 97.94-23.35 97.27-21.78 96.59-20.2 96.59-16.35L96.59-16.35ZM112.24-36.6L112.24-37.5 124.49-37.5 124.49-0.9 127.29-0.9 127.29 0 112.44 0 112.44-0.9 115.19-0.9 115.19-36.6 112.24-36.6ZM144.39-9.85L144.39-9.85 144.39-14.1Q144.39-18.95 143.86-21.18 143.34-23.4 141.44-23.4L141.44-23.4Q140.34-23.4 139.66-22.78 138.99-22.15 138.69-20.7L138.69-20.7Q138.24-18.45 138.24-13.85L138.24-13.85 138.24-9.95Q138.24-4.5 138.56-3.4 138.89-2.3 139.24-1.6L139.24-1.6Q139.79-0.4 141.39-0.4L141.39-0.4Q143.34-0.4 143.94-2.65L143.94-2.65Q144.39-4.25 144.39-9.85ZM141.29 0.5Q135.04 0.5 131.84-2.7 128.64-5.9 128.64-11.88 128.64-17.85 132.06-21.08 135.49-24.3 141.69-24.3 147.89-24.3 150.94-21.33 153.99-18.35 153.99-12.25L153.99-12.25Q153.99 0.5 141.29 0.5L141.29 0.5ZM155.49-22.9L155.49-23.8 167.54-23.8 167.54-19.2Q168.34-21.5 169.99-22.9 171.64-24.3 174.99-24.3L174.99-24.3Q182.74-24.3 182.74-15.95L182.74-15.95 182.74-0.9 185.54-0.9 185.54 0 171.39 0 171.39-0.9 173.44-0.9 173.44-17.15Q173.44-20.15 173.04-21.03 172.64-21.9 171.59-21.9L171.59-21.9Q169.99-21.9 168.76-19.8 167.54-17.7 167.54-14.7L167.54-14.7 167.54-0.9 169.69-0.9 169.69 0 155.49 0 155.49-0.9 158.24-0.9 158.24-22.9 155.49-22.9ZM201.93-0.55L201.93-0.55Q204.43-0.55 206.36-1.9 208.28-3.25 208.28-5.98 208.28-8.7 206.21-10.15 204.13-11.6 200.31-12.68 196.48-13.75 194.76-14.55 193.03-15.35 191.48-16.65L191.48-16.65Q188.38-19.25 188.38-24.7L188.38-24.7Q188.38-29.15 191.56-32.35 194.73-35.55 200.23-35.55L200.23-35.55Q202.88-35.55 205.76-34.77 208.63-34 209.33-34 210.03-34 210.58-35L210.58-35 211.13-35 211.48-24.9 210.68-24.9Q208.28-29.25 205.66-31.88 203.03-34.5 199.96-34.5 196.88-34.5 195.18-33.08 193.48-31.65 193.48-29.28 193.48-26.9 195.51-25.63 197.53-24.35 200.48-23.55 203.43-22.75 204.36-22.45 205.28-22.15 206.66-21.63 208.03-21.1 208.91-20.53 209.78-19.95 210.76-19.07 211.73-18.2 212.28-17.15L212.28-17.15Q213.63-14.75 213.63-11.45L213.63-11.45Q213.63-6.05 210.26-2.78 206.88 0.5 201.38 0.5L201.38 0.5Q198.53 0.5 194.86-0.25 191.18-1 190.78-1L190.78-1Q190.08-1 189.43 0.5L189.43 0.5 188.73 0.5 188.23-11.4 189.08-11.4Q191.28-7.05 194.71-3.8 198.13-0.55 201.93-0.55ZM230.18-23.4L230.18-23.4Q227.98-23.4 227.03-21 226.08-18.6 226.08-13.05L226.08-13.05 226.08-10.45Q226.08-5.5 227.18-3.35 228.28-1.2 231.23-1.2 234.18-1.2 235.93-3.2 237.68-5.2 238.18-7.75L238.18-7.75 239.08-7.65Q238.13-3.35 235.58-1.45L235.58-1.45Q232.98 0.5 228.43 0.5L228.43 0.5Q222.63 0.5 219.53-2.63 216.43-5.75 216.43-11.78 216.43-17.8 219.96-21.05 223.48-24.3 229.78-24.3L229.78-24.3Q234.23-24.3 236.58-22.58 238.93-20.85 238.93-18.25 238.93-15.65 237.81-14.45 236.68-13.25 234.71-13.25 232.73-13.25 231.53-14.3 230.33-15.35 230.33-17.4L230.33-17.4Q230.33-18.3 230.58-19.2L230.58-19.2 232.23-19.2Q232.58-20.2 232.58-21L232.58-21Q232.58-23.4 230.18-23.4ZM257.03-22.4L257.03-22.4Q255.18-22.4 253.78-20 252.38-17.6 252.38-14.3L252.38-14.3 252.38-0.9 255.93-0.9 255.93 0 240.33 0 240.33-0.9 243.08-0.9 243.08-22.9 240.33-22.9 240.33-23.8 252.38-23.8 252.38-19Q253.03-21.55 254.88-22.93 256.73-24.3 259.08-24.3 261.43-24.3 262.9-22.98 264.38-21.65 264.38-19.23 264.38-16.8 263.28-15.5 262.18-14.2 259.9-14.2 257.63-14.2 256.55-15.7 255.48-17.2 256.28-19.85L256.28-19.85 258.08-19.85Q259.33-22.4 257.03-22.4ZM272.43-27.25Q269.78-27.25 268.65-28.6 267.53-29.95 267.53-31.95 267.53-33.95 268.75-35.25 269.98-36.55 272.48-36.55 274.98-36.55 276.28-35.38 277.58-34.2 277.58-32.02 277.58-29.85 276.33-28.55 275.08-27.25 272.43-27.25ZM264.88-22.9L264.88-23.8 277.13-23.8 277.13-0.9 279.93-0.9 279.93 0 265.08 0 265.08-0.9 267.83-0.9 267.83-22.9 264.88-22.9ZM299.17-13.45Q299.17-18.6 298.67-20.38 298.17-22.15 296.72-22.15 295.27-22.15 294.12-20.28 292.97-18.4 292.97-15.25L292.97-15.25 292.97-6.1Q292.97-3.95 293.82-2.45 294.67-0.95 296.32-0.95 297.97-0.95 298.57-3.15 299.17-5.35 299.17-10.85L299.17-10.85 299.17-13.45ZM281.02-23.8L292.87-23.8 292.87-19.85Q294.82-24.3 299.77-24.3L299.77-24.3Q304.07-24.3 306.45-21.2 308.82-18.1 308.82-11.8 308.82-5.5 306.25-2.5 303.67 0.5 298.52 0.5L298.52 0.5Q296.12 0.5 294.92-0.1 293.72-0.7 292.97-1.95L292.97-1.95 292.97 11 299.42 11 299.42 11.9 280.92 11.9 280.92 11 283.67 11 283.67-22.9 281.02-22.9 281.02-23.8ZM312.82-7.15L312.82-7.15 312.82-22.9 310.07-22.9 310.07-23.8 312.82-23.8 312.82-30.25 322.12-32.55 322.12-23.8 328.62-23.8 328.62-22.9 322.12-22.9 322.12-6.05Q322.12-3.7 322.6-2.6 323.07-1.5 324.57-1.5 326.07-1.5 327.2-3 328.32-4.5 328.67-7.1L328.67-7.1 329.52-7Q329.12-3.55 327.32-1.53 325.52 0.5 321.37 0.5 317.22 0.5 315.02-1.15 312.82-2.8 312.82-7.15Z" fill="black"></path></g></svg></g></svg></g></svg></g></svg></g><g><svg viewBox="0 0 145.04202373034227 145.04202373034227" height="145.04202373034227" width="145.04202373034227"><g><svg></svg></g><g id="SvgjsG1070"><svg viewBox="0 0 145.04202373034227 145.04202373034227" height="145.04202373034227" width="145.04202373034227"><g><path d="M0 72.521c0-40.052 32.469-72.521 72.521-72.521 40.052 0 72.521 32.469 72.521 72.521 0 40.052-32.469 72.521-72.521 72.521-40.052 0-72.521-32.469-72.521-72.521zM72.521 139.67c37.085 0 67.149-30.064 67.149-67.149 0-37.085-30.064-67.149-67.149-67.149-37.085 0-67.149 30.064-67.149 67.149 0 37.085 30.064 67.149 67.149 67.149z" fill="black" stroke="transparent"></path></g><g transform="matrix(1,0,0,1,30.553235778490446,53.396471005797)"><svg viewBox="0 0 83.93555217336137 38.24908171874827" height="38.24908171874827" width="83.93555217336137"><g><svg xmlns="http://www.w3.org/2000/svg" xmlns:xlink="http://www.w3.org/1999/xlink" version="1.1" x="0" y="0" viewBox="5 29.49387475885969 90 41.012625348283166" enable-background="new 0 0 100 100" xml:space="preserve" height="38.24908171874827" width="83.93555217336137" class="icon-cg-0" data-fill-palette-color="accent" id="SvgjsSvg1069"><g fill="black"><path d="M23.943 30.807L5 50.001l18.942 19.192c1.728 1.751 4.53 1.751 6.258 0.002 1.729-1.75 1.73-4.587 0.002-6.338L18.193 50.695l-3.624 2.289 15.634-15.841c0.864-0.875 1.295-2.021 1.295-3.168 0-1.147-0.433-2.295-1.297-3.17C28.473 29.056 25.671 29.057 23.943 30.807z" fill="black"></path><path d="M76.057 30.808L95 50.001 76.058 69.193c-1.728 1.751-4.53 1.751-6.258 0.002-1.729-1.75-1.73-4.587-0.002-6.338l12.009-12.161 3.624 2.289L69.796 37.144c-0.864-0.875-1.295-2.021-1.295-3.168 0-1.147 0.433-2.295 1.297-3.17C71.527 29.056 74.329 29.057 76.057 30.808z" fill="black"></path><path d="M60.899 32.352c-0.419-1.068-1.241-1.978-2.366-2.476-2.249-0.997-4.857 0.028-5.825 2.288l-13.82 32.062c-0.484 1.13-0.467 2.355-0.048 3.422 0.419 1.068 1.241 1.978 2.366 2.476 2.249 0.997 4.857-0.028 5.825-2.288l13.82-32.062C61.335 34.644 61.318 33.419 60.899 32.352z" fill="black"></path></g></svg></g></svg></g></svg></g></svg></g></svg></g><defs><mask></mask></defs></svg><rect width="395.52" height="100.87613732344231" fill="black" stroke="none" visibility="hidden"></rect></g></mask></svg><rect width="395.52" height="100.87613732344231" fill="black" stroke="none" visibility="hidden"></rect></g></mask><linearGradient x1="0" x2="1" y1="0.548" y2="0.55" id="2af6ee6d-ed46-4cee-a9b5-8e866ab2ce34"><stop stop-color="#ff6cab" offset="0"></stop><stop stop-color="#7366ff" offset="1"></stop></linearGradient><rect width="395.52" height="100.87613732344231" fill="#ffffff" mask="url(#4e590822-78c2-40d6-9a1a-d57cf6a58f6c)" data-fill-palette-color="accent"></rect></svg><rect width="395.52" height="100.87613732344231" fill="none" stroke="none" visibility="hidden"></rect></g></svg></g></svg>